<?xml version="1.0" standalone="no"?><!DOCTYPE svg PUBLIC "-//W3C//DTD SVG 1.1//EN" "http://www.w3.org/Graphics/SVG/1.1/DTD/svg11.dtd"><svg t="1774855604081" class="icon" viewBox="0 0 1024 1024" version="1.1" xmlns="http://www.w3.org/2000/svg" p-id="3108" xmlns:xlink="http://www.w3.org/1999/xlink" width="200" height="200"><path d="M576 576m96 0l128 0q96 0 96 96l0 128q0 96-96 96l-128 0q-96 0-96-96l0-128q0-96 96-96Z" fill="#99AFFF" p-id="3109"></path><path d="M160 288a160 160 0 0 1 160-160h218.976a128 128 0 0 1 90.528 37.504l164.992 164.992A128 128 0 0 1 832 421.024V704a160 160 0 0 1-160 160H320a160 160 0 0 1-160-160V288z" fill="#FFFFFF" fill-opacity=".65" p-id="3110"></path><path d="M538.976 128c33.92 0 66.528 13.504 90.528 37.504l164.992 164.992A128.064 128.064 0 0 1 832 421.056V704a160 160 0 0 1-151.776 159.776L672 864H320l-8.224-0.224a160 160 0 0 1-151.552-151.552L160 704V288a160 160 0 0 1 151.776-159.776L320 128h218.976zM320 185.6A102.4 102.4 0 0 0 217.6 288v416a102.4 102.4 0 0 0 102.4 102.4h352a102.4 102.4 0 0 0 102.4-102.4v-282.976a70.4 70.4 0 0 0-20.608-49.76l-165.056-165.056a70.4 70.4 0 0 0-49.76-20.608H320z" fill="#222222" p-id="3111"></path><path d="M450.944 611.36a28.8 28.8 0 0 1 0 57.28L448 668.8h-96a28.8 28.8 0 0 1 0-57.6h96l2.944 0.16z m64-128a28.8 28.8 0 0 1 0 57.28L512 540.8h-160a28.8 28.8 0 0 1 0-57.6h160l2.944 0.16z" fill="#222222" p-id="3112"></path><path d="M547.2 288V160h57.6v128c0 37.12 30.08 67.2 67.2 67.2h128v57.6h-128A124.8 124.8 0 0 1 547.2 288z" fill="#222222" p-id="3113"></path></svg>