<?xml version="1.0" standalone="no"?><!DOCTYPE svg PUBLIC "-//W3C//DTD SVG 1.1//EN" "http://www.w3.org/Graphics/SVG/1.1/DTD/svg11.dtd"><svg t="1774855551292" class="icon" viewBox="0 0 1024 1024" version="1.1" xmlns="http://www.w3.org/2000/svg" p-id="2800" xmlns:xlink="http://www.w3.org/1999/xlink" width="200" height="200"><path d="M128 307.2m76.8 0l102.4 0q76.8 0 76.8 76.8l0 0q0 76.8-76.8 76.8l-102.4 0q-76.8 0-76.8-76.8l0 0q0-76.8 76.8-76.8Z" fill="#99AFFF" p-id="2801"></path><path d="M128 588.8m76.8 0l102.4 0q76.8 0 76.8 76.8l0 0q0 76.8-76.8 76.8l-102.4 0q-76.8 0-76.8-76.8l0 0q0-76.8 76.8-76.8Z" fill="#99AFFF" p-id="2802"></path><path d="M230.4 339.2a160 160 0 0 1 160-160H672a224 224 0 0 1 224 224v243.2a224 224 0 0 1-224 224h-281.6a160 160 0 0 1-160-160V339.2z" fill="#FFFFFF" fill-opacity=".65" p-id="2803"></path><path d="M672 179.2a224 224 0 0 1 224 224v243.2a224 224 0 0 1-224 224h-281.6a160 160 0 0 1-160-160V339.2a160 160 0 0 1 151.776-159.776L390.4 179.2H672z m-281.6 57.6A102.4 102.4 0 0 0 288 339.2v371.2a102.4 102.4 0 0 0 102.4 102.4H672a166.4 166.4 0 0 0 166.4-166.4v-243.2A166.4 166.4 0 0 0 672 236.8h-281.6z" fill="#222222" p-id="2804"></path><path d="M659.36 387.968a28.8 28.8 0 0 1 38.08 43.264l-123.296 108.544a44.8 44.8 0 0 1-60.896-1.536l-46.976-45.856-1.984-2.176a28.8 28.8 0 0 1 40-40.96l2.24 1.92 38.464 37.536 114.4-100.736zM665.6 636.8l2.976 0.128a28.8 28.8 0 0 1 0 57.312l-2.944 0.16h-204.8a28.8 28.8 0 0 1 0-57.6h204.8z" fill="#222222" p-id="2805"></path></svg>