<?xml version="1.0" standalone="no"?><!DOCTYPE svg PUBLIC "-//W3C//DTD SVG 1.1//EN" "http://www.w3.org/Graphics/SVG/1.1/DTD/svg11.dtd"><svg t="1774855607891" class="icon" viewBox="0 0 1024 1024" version="1.1" xmlns="http://www.w3.org/2000/svg" p-id="3262" xmlns:xlink="http://www.w3.org/1999/xlink" width="200" height="200"><path d="M800 384a64 64 0 0 1 64 64v409.12a48 48 0 0 1-65.824 44.544l-88.448-35.36a32.032 32.032 0 0 0-11.904-2.304H416a64 64 0 0 1-64-64V448a64 64 0 0 1 64-64h384z" fill="#99AFFF" p-id="3263"></path><path d="M128 320a160 160 0 0 1 160-160h384a160 160 0 0 1 160 160v320a160 160 0 0 1-160 160H352l-44.128 44.128a96 96 0 0 1-135.744 0l-6.624-6.624A128 128 0 0 1 128 746.976V320z" fill="#FFFFFF" fill-opacity=".65" p-id="3264"></path><path d="M672 160a160 160 0 0 1 160 160v320a160 160 0 0 1-160 160H352l-44.128 44.128-3.552 3.392a96.032 96.032 0 0 1-128.64 0l-3.552-3.392-6.624-6.624A128.064 128.064 0 0 1 128 746.944V320a160 160 0 0 1 160-160h384zM288 217.6A102.4 102.4 0 0 0 185.6 320v426.976a70.4 70.4 0 0 0 20.608 49.76l6.624 6.624a38.4 38.4 0 0 0 54.336 0l44.128-44.096 4.192-3.84A57.6 57.6 0 0 1 352 742.4h320a102.4 102.4 0 0 0 102.4-102.4V320A102.4 102.4 0 0 0 672 217.6H288z" fill="#222222" p-id="3265"></path><path d="M544 355.2a28.8 28.8 0 0 1 28.8 28.8v136.224l3.328 5.632c1.888 3.2 3.36 5.28 5.184 7.136 2.88 2.944 9.28 7.968 25.92 12.96l7.776 2.112 2.816 0.832a28.8 28.8 0 0 1-16.832 55.04c-28.672-7.168-47.488-17.088-60.704-30.528a83.104 83.104 0 0 1-4.416-4.832 124.8 124.8 0 1 1-19.456-192.96A28.864 28.864 0 0 1 544 355.2z m-96 57.6a67.2 67.2 0 1 0 0 134.368 67.2 67.2 0 0 0 0-134.368z" fill="#222222" p-id="3266"></path></svg>